<?xml version="1.0" encoding="UTF-8"?>
<svg xmlns="http://www.w3.org/2000/svg" width="100%" viewBox="0 0 680 360" role="img">
<style>
text { font-family: -apple-system, BlinkMacSystemFont, "Segoe UI", Helvetica, Arial, sans-serif; }
.t { font-size: 14px; fill: #1c1c1c; }
.ts { font-size: 12px; fill: #5f5e5a; }
.th { font-size: 14px; font-weight: 500; fill: #1c1c1c; }
.c-blue > rect { fill: #E6F1FB; stroke: #185FA5; stroke-width: 0.5; }
.c-teal > rect { fill: #E1F5EE; stroke: #1D9E75; stroke-width: 0.5; }
</style>
<title>Mosaico de señales biomédicas reales y sintéticas</title><desc>Arriba un mosaico con señales reales. Abajo la contraparte sintética generada por modelos.</desc>
<defs><marker id="arrow" viewBox="0 0 10 10" refX="8" refY="5" markerWidth="6" markerHeight="6" orient="auto-start-reverse"><path d="M2 1L8 5L2 9" fill="none" stroke="context-stroke" stroke-width="1.5" stroke-linecap="round" stroke-linejoin="round"/></marker></defs>

<text class="th" x="40" y="28" fill="#1c1c1c">señales reales</text>
<text class="ts" x="40" y="46" fill="#5f5e5a">capturadas de pacientes</text>
<g class="c-blue"><rect x="40" y="56" width="600" height="120" rx="8"/></g>
<rect x="60" y="60" width="240" height="55" fill="none" stroke="#85B7EB" stroke-width="0.5"/>
<text class="ts" x="65" y="74" fill="#185FA5">ECG</text>
<polyline fill="none" stroke="#0C447C" stroke-width="1" points="80,80.0 82,80.0 84,79.7 86,80.0 88,79.7 90,79.1 92,78.3 94,77.1 96,77.0 98,77.9 100,79.5 102,79.9 104,80.3 106,79.7 108,79.8 110,80.4 112,79.6 114,79.6 116,79.9 118,79.9 120,80.8 122,84.1 124,65.4 126,66.0 128,86.0 130,81.0 132,80.4 134,80.0 136,80.0 138,79.6 140,79.6 142,78.9 144,78.0 146,76.5 148,75.5 150,75.2 152,75.1 154,76.3 156,77.7 158,78.8 160,79.7 162,80.1 164,80.1 166,80.3 168,79.8 170,80.1 172,79.7 174,80.1 176,79.6 178,79.5 180,79.5 182,78.3 184,76.8 186,77.2 188,77.7 190,79.2 192,80.1 194,79.8 196,79.8 198,80.2 200,80.3 202,80.1 204,79.6 206,79.8 208,80.3 210,80.7 212,84.0 214,65.7 216,65.4 218,86.0 220,80.8 222,80.0 224,80.2 226,79.8 228,80.2 230,79.5 232,79.3 234,78.0 236,76.9 238,75.7 240,74.6 242,75.2 244,76.8 246,77.7 248,79.2 250,79.7 252,79.6 254,79.8 256,80.3 258,79.6 260,80.2 262,80.2 264,79.8 266,80.1 268,79.9 270,79.5 272,78.4 274,77.1 276,77.4 278,78.0 280,79.2 282,79.8 284,79.6 286,80.0 288,79.9 290,79.7 292,80.3 294,80.3 296,79.7 298,79.7 300,80.7"/>

<rect x="60" y="115" width="240" height="55" fill="none" stroke="#85B7EB" stroke-width="0.5"/>
<text class="ts" x="65" y="129" fill="#185FA5">EEG</text>
<polyline fill="none" stroke="#0C447C" stroke-width="1" points="80,142.8 83,141.0 86,142.6 89,142.4 92,145.9 95,141.0 98,143.0 101,141.2 104,143.8 107,146.1 110,141.4 113,144.2 116,139.4 119,144.9 122,143.4 125,143.7 128,143.3 131,140.2 134,144.5 137,143.0 140,146.1 143,141.4 146,140.9 149,143.1 152,143.1 155,146.0 158,141.1 161,143.5 164,141.3 167,144.3 170,146.0 173,142.1 176,143.4 179,139.6 182,145.9 185,144.1 188,143.4 191,141.6 194,139.7 197,144.9 200,142.9 203,146.3 206,141.2 209,141.8 212,142.8 215,143.4 218,145.9 221,140.8 224,142.4 227,141.0 230,144.8 233,145.8 236,141.0 239,143.0 242,139.5 245,145.8 248,143.6 251,143.7 254,141.0 257,139.5 260,144.9 263,143.7 266,145.8 269,139.4 272,140.7 275,143.3 278,144.1 281,146.1 284,139.8 287,142.0 290,140.9 293,145.8 296,145.5 299,142.1"/>

<rect x="320" y="60" width="220" height="55" fill="none" stroke="#85B7EB" stroke-width="0.5"/>
<text class="ts" x="325" y="74" fill="#185FA5">PPG</text>
<polyline fill="none" stroke="#0C447C" stroke-width="1.2" points="320,80.1 322,80.3 324,80.2 326,79.6 328,77.3 330,73.0 332,70.0 334,72.8 336,77.6 338,79.3 340,80.2 342,80.4 344,83.3 346,83.3 348,80.5 350,79.4 352,79.0 354,78.7 356,78.4 358,77.4 360,76.7 362,76.2 364,75.9 366,75.2 368,74.9 370,75.2 372,75.2 374,75.3 376,76.1 378,76.3 380,77.1 382,77.4 384,78.1 386,78.8 388,79.3 390,79.6 392,79.5 394,79.8 396,79.7 398,79.7 400,80.0 402,80.2 404,80.2 406,79.6 408,77.6 410,72.7 412,69.8 414,72.8 416,77.2 418,79.3 420,80.0 422,80.7 424,83.3 426,83.2 428,80.9 430,79.6 432,79.0 434,78.4 436,77.8 438,77.8 440,76.7 442,76.5 444,75.9 446,75.3 448,75.3 450,74.7 452,74.9 454,75.4 456,75.5 458,76.6 460,76.8 462,77.4 464,77.9 466,78.7 468,79.0 470,79.4 472,79.6 474,79.9 476,80.1 478,80.0 480,79.8 482,80.0 484,79.8 486,79.2 488,77.3 490,73.0 492,69.8 494,72.7 496,77.3 498,79.6 500,80.0 502,80.7 504,83.4 506,83.2 508,80.8 510,79.6 512,78.8 514,78.9 516,78.3 518,77.3 520,76.9 522,76.4 524,76.1 526,75.3 528,75.1 530,75.2 532,75.3 534,75.7 536,75.8 538,76.5 540,76.8"/>

<rect x="320" y="115" width="220" height="55" fill="none" stroke="#85B7EB" stroke-width="0.5"/>
<text class="ts" x="325" y="129" fill="#185FA5">respiración</text>
<polyline fill="none" stroke="#0C447C" stroke-width="1.2" points="320,147.9 323,146.0 326,144.4 329,142.6 332,141.4 335,139.6 338,138.3 341,137.3 344,136.8 347,136.1 350,136.1 353,135.8 356,136.1 359,136.9 362,137.9 365,138.7 368,139.9 371,141.1 374,142.9 377,144.8 380,146.1 383,148.4 386,149.7 389,151.8 392,153.4 395,154.7 398,156.5 401,157.7 404,158.4 407,159.1 410,159.5 413,159.9 416,159.7 419,159.7 422,158.8 425,158.6 428,157.4 431,156.0 434,154.7 437,152.9 440,151.3 443,149.6 446,147.6 449,146.0 452,144.4 455,142.7 458,140.9 461,139.4 464,138.7 467,137.3 470,136.5 473,136.2 476,136.0 479,136.2 482,136.3 485,136.9 488,137.7 491,139.1 494,139.8 497,141.5 500,143.1 503,144.6 506,146.5 509,148.3 512,150.0 515,152.1 518,153.5 521,155.1 524,156.1 527,157.3 530,158.7 533,159.3 536,160.0 539,160.0"/>

<rect x="560" y="60" width="80" height="110" fill="none" stroke="#85B7EB" stroke-width="0.5"/>
<text class="ts" x="565" y="74" fill="#185FA5">EMG</text>
<polyline fill="none" stroke="#0C447C" stroke-width="0.8" points="560,112.4 561,110.4 562,120.6 563,124.4 564,127.4 565,117.2 566,109.8 567,128.9 568,113.3 569,131.5 570,127.3 571,126.5 572,115.5 573,124.3 574,123.5 575,117.1 576,129.5 577,114.5 578,129.1 579,119.7 580,126.0 581,127.3 582,119.3 583,121.5 584,123.0 585,122.1 586,119.3 587,128.2 588,127.1 589,116.8 590,116.7 591,119.3 592,111.6 593,117.3 594,111.4 595,121.3 596,118.8 597,118.5 598,118.1 599,120.9 600,120.9 601,118.0 602,121.4 603,117.6 604,118.1 605,121.8 606,121.3 607,118.9 608,121.2 609,121.9 610,118.4 611,120.4 612,118.6 613,121.8 614,120.5 615,119.1 616,122.3 617,121.4 618,119.1 619,118.0 620,117.8 621,121.8 622,120.0 623,118.8 624,120.0 625,119.1 626,121.5 627,122.1 628,121.9 629,122.2 630,119.8 631,119.9 632,119.7 633,121.7 634,121.5 635,121.4 636,118.4 637,117.6 638,118.0 639,121.9 640,130.5"/>

<text class="th" x="40" y="206" fill="#1c1c1c">señales sintéticas</text>
<text class="ts" x="180" y="206" fill="#5f5e5a">generadas por modelos de IA</text>
<g class="c-teal"><rect x="40" y="216" width="600" height="120" rx="8"/></g>
<rect x="60" y="220" width="240" height="55" fill="none" stroke="#5DCAA5" stroke-width="0.5"/>
<text class="ts" x="65" y="234" fill="#0F6E56">ECG</text>
<polyline fill="none" stroke="#085041" stroke-width="1" points="80,240.0 82,240.0 84,239.7 86,240.0 88,239.7 90,239.1 92,238.3 94,237.1 96,237.0 98,237.9 100,239.5 102,239.9 104,240.3 106,239.7 108,239.8 110,240.4 112,239.6 114,239.6 116,239.9 118,239.9 120,240.8 122,244.1 124,225.4 126,226.0 128,246.0 130,241.0 132,240.4 134,240.0 136,240.0 138,239.6 140,239.6 142,238.9 144,238.0 146,236.5 148,235.5 150,235.2 152,235.1 154,236.3 156,237.7 158,238.8 160,239.7 162,240.1 164,240.1 166,240.3 168,239.8 170,240.1 172,239.7 174,240.1 176,239.6 178,239.5 180,239.5 182,238.3 184,236.8 186,237.2 188,237.7 190,239.2 192,240.1 194,239.8 196,239.8 198,240.2 200,240.3 202,240.1 204,239.6 206,239.8 208,240.3 210,240.7 212,244.0 214,225.7 216,225.4 218,246.0 220,240.8 222,240.0 224,240.2 226,239.8 228,240.2 230,239.5 232,239.3 234,238.0 236,236.9 238,235.7 240,234.6 242,235.2 244,236.8 246,237.7 248,239.2 250,239.7 252,239.6 254,239.8 256,240.3 258,239.6 260,240.2 262,240.2 264,239.8 266,240.1 268,239.9 270,239.5 272,238.4 274,237.1 276,237.4 278,238.0 280,239.2 282,239.8 284,239.6 286,240.0 288,239.9 290,239.7 292,240.3 294,240.3 296,239.7 298,239.7 300,240.7"/>

<rect x="60" y="275" width="240" height="55" fill="none" stroke="#5DCAA5" stroke-width="0.5"/>
<text class="ts" x="65" y="289" fill="#0F6E56">EEG</text>
<polyline fill="none" stroke="#085041" stroke-width="1" points="80,302.8 83,301.0 86,302.6 89,302.4 92,305.9 95,301.0 98,303.0 101,301.2 104,303.8 107,306.1 110,301.4 113,304.2 116,299.4 119,304.9 122,303.4 125,303.7 128,303.3 131,300.2 134,304.5 137,303.0 140,306.1 143,301.4 146,300.9 149,303.1 152,303.1 155,306.0 158,301.1 161,303.5 164,301.3 167,304.3 170,306.0 173,302.1 176,303.4 179,299.6 182,305.9 185,304.1 188,303.4 191,301.6 194,299.7 197,304.9 200,302.9 203,306.3 206,301.2 209,301.8 212,302.8 215,303.4 218,305.9 221,300.8 224,302.4 227,301.0 230,304.8 233,305.8 236,301.0 239,303.0 242,299.5 245,305.8 248,303.6 251,303.7 254,301.0 257,299.5 260,304.9 263,303.7 266,305.8 269,299.4 272,300.7 275,303.3 278,304.1 281,306.1 284,299.8 287,302.0 290,300.9 293,305.8 296,305.5 299,302.1"/>

<rect x="320" y="220" width="220" height="55" fill="none" stroke="#5DCAA5" stroke-width="0.5"/>
<text class="ts" x="325" y="234" fill="#0F6E56">PPG</text>
<polyline fill="none" stroke="#085041" stroke-width="1.2" points="320,240.1 322,240.3 324,240.2 326,239.6 328,237.3 330,233.0 332,230.0 334,232.8 336,237.6 338,239.3 340,240.2 342,240.4 344,243.3 346,243.3 348,240.5 350,239.4 352,239.0 354,238.7 356,238.4 358,237.4 360,236.7 362,236.2 364,235.9 366,235.2 368,234.9 370,235.2 372,235.2 374,235.3 376,236.1 378,236.3 380,237.1 382,237.4 384,238.1 386,238.8 388,239.3 390,239.6 392,239.5 394,239.8 396,239.7 398,239.7 400,240.0 402,240.2 404,240.2 406,239.6 408,237.6 410,232.7 412,229.8 414,232.8 416,237.2 418,239.3 420,240.0 422,240.7 424,243.3 426,243.2 428,240.9 430,239.6 432,239.0 434,238.4 436,237.8 438,237.8 440,236.7 442,236.5 444,235.9 446,235.3 448,235.3 450,234.7 452,234.9 454,235.4 456,235.5 458,236.6 460,236.8 462,237.4 464,237.9 466,238.7 468,239.0 470,239.4 472,239.6 474,239.9 476,240.1 478,240.0 480,239.8 482,240.0 484,239.8 486,239.2 488,237.3 490,233.0 492,229.8 494,232.7 496,237.3 498,239.6 500,240.0 502,240.7 504,243.4 506,243.2 508,240.8 510,239.6 512,238.8 514,238.9 516,238.3 518,237.3 520,236.9 522,236.4 524,236.1 526,235.3 528,235.1 530,235.2 532,235.3 534,235.7 536,235.8 538,236.5 540,236.8"/>

<rect x="320" y="275" width="220" height="55" fill="none" stroke="#5DCAA5" stroke-width="0.5"/>
<text class="ts" x="325" y="289" fill="#0F6E56">respiración</text>
<polyline fill="none" stroke="#085041" stroke-width="1.2" points="320,307.9 323,306.0 326,304.4 329,302.6 332,301.4 335,299.6 338,298.3 341,297.3 344,296.8 347,296.1 350,296.1 353,295.8 356,296.1 359,296.9 362,297.9 365,298.7 368,299.9 371,301.1 374,302.9 377,304.8 380,306.1 383,308.4 386,309.7 389,311.8 392,313.4 395,314.7 398,316.5 401,317.7 404,318.4 407,319.1 410,319.5 413,319.9 416,319.7 419,319.7 422,318.8 425,318.6 428,317.4 431,316.0 434,314.7 437,312.9 440,311.3 443,309.6 446,307.6 449,306.0 452,304.4 455,302.7 458,300.9 461,299.4 464,298.7 467,297.3 470,296.5 473,296.2 476,296.0 479,296.2 482,296.3 485,296.9 488,297.7 491,299.1 494,299.8 497,301.5 500,303.1 503,304.6 506,306.5 509,308.3 512,310.0 515,312.1 518,313.5 521,315.1 524,316.1 527,317.3 530,318.7 533,319.3 536,320.0 539,320.0"/>

<rect x="560" y="220" width="80" height="110" fill="none" stroke="#5DCAA5" stroke-width="0.5"/>
<text class="ts" x="565" y="234" fill="#0F6E56">EMG</text>
<polyline fill="none" stroke="#085041" stroke-width="0.8" points="560,272.4 561,270.4 562,280.6 563,284.4 564,287.4 565,277.2 566,269.8 567,288.9 568,273.3 569,291.5 570,287.3 571,286.5 572,275.5 573,284.3 574,283.5 575,277.1 576,289.5 577,274.5 578,289.1 579,279.7 580,286.0 581,287.3 582,279.3 583,281.5 584,283.0 585,282.1 586,279.3 587,288.2 588,287.1 589,276.8 590,276.7 591,279.3 592,271.6 593,277.3 594,271.4 595,281.3 596,278.8 597,278.5 598,278.1 599,280.9 600,280.9 601,278.0 602,281.4 603,277.6 604,278.1 605,281.8 606,281.3 607,278.9 608,281.2 609,281.9 610,278.4 611,280.4 612,278.6 613,281.8 614,280.5 615,279.1 616,282.3 617,281.4 618,279.1 619,278.0 620,277.8 621,281.8 622,280.0 623,278.8 624,280.0 625,279.1 626,281.5 627,282.1 628,281.9 629,282.2 630,279.8 631,279.9 632,279.7 633,281.7 634,281.5 635,281.4 636,278.4 637,277.6 638,278.0 639,281.9 640,290.5"/>

<line x1="320" y1="190" x2="340" y2="200" stroke="#5f5e5a" stroke-width="1" marker-end="url(#arrow)"/>
<text class="ts" x="290" y="196" fill="#888780">generación →</text>
</svg>
