<?xml version="1.0" encoding="UTF-8"?>
<svg xmlns="http://www.w3.org/2000/svg" width="100%" viewBox="0 0 680 540" role="img">
<style>
text { font-family: -apple-system, BlinkMacSystemFont, "Segoe UI", Helvetica, Arial, sans-serif; }
.t { font-size: 14px; fill: #1c1c1c; }
.ts { font-size: 12px; fill: #5f5e5a; }
.th { font-size: 14px; font-weight: 500; fill: #1c1c1c; }
.c-coral > rect { fill: #FAECE7; stroke: #993C1D; stroke-width: 0.5; }
.c-purple > rect { fill: #EEEDFE; stroke: #534AB7; stroke-width: 0.5; }
.c-teal > rect { fill: #E1F5EE; stroke: #1D9E75; stroke-width: 0.5; }
</style>
<title>Señales biomédicas típicas: ECG con ondas P-QRS-T, EEG multicanal y PPG</title><desc>Strip de ECG con anotaciones de las ondas P, Q, R, S y T, debajo un EEG de cuatro canales en paralelo y por último una señal de fotopletismografía típica de un smartwatch.</desc>
<defs><marker id="arrow" viewBox="0 0 10 10" refX="8" refY="5" markerWidth="6" markerHeight="6" orient="auto-start-reverse"><path d="M2 1L8 5L2 9" fill="none" stroke="context-stroke" stroke-width="1.5" stroke-linecap="round" stroke-linejoin="round"/></marker></defs>

<text class="th" x="40" y="32" fill="#1c1c1c">ECG con anotaciones P-QRS-T</text>
<g class="c-coral"><rect x="40" y="44" width="600" height="140" rx="8"/></g>
<line x1="55" y1="120" x2="625" y2="120" stroke="#F0997B" stroke-width="0.5"/>
<polyline fill="none" stroke="#993C1D" stroke-width="1.6" points="55,120 100,120 115,108 130,120 155,120 175,122 182,72 189,150 196,120 230,120 250,104 275,120 310,120 350,120 365,108 380,120 405,120 425,122 432,72 439,150 446,120 480,120 500,104 525,120 560,120 600,120 615,108 625,118"/>
<line x1="115" y1="108" x2="115" y2="60" stroke="#993C1D" stroke-width="0.5" stroke-dasharray="2 2"/>
<text class="ts" x="115" y="55" fill="#712B13" text-anchor="middle">P</text>
<line x1="175" y1="122" x2="175" y2="60" stroke="#993C1D" stroke-width="0.5" stroke-dasharray="2 2"/>
<text class="ts" x="175" y="55" fill="#712B13" text-anchor="middle">Q</text>
<line x1="182" y1="72" x2="182" y2="60" stroke="#993C1D" stroke-width="0.5" stroke-dasharray="2 2"/>
<text class="ts" x="195" y="55" fill="#712B13" text-anchor="middle">R</text>
<line x1="189" y1="150" x2="189" y2="170" stroke="#993C1D" stroke-width="0.5" stroke-dasharray="2 2"/>
<text class="ts" x="205" y="180" fill="#712B13" text-anchor="middle">S</text>
<line x1="250" y1="104" x2="250" y2="60" stroke="#993C1D" stroke-width="0.5" stroke-dasharray="2 2"/>
<text class="ts" x="250" y="55" fill="#712B13" text-anchor="middle">T</text>

<text class="th" x="40" y="220" fill="#1c1c1c">EEG — múltiples canales en paralelo</text>
<g class="c-purple"><rect x="40" y="232" width="600" height="170" rx="8"/></g>
<text class="ts" x="50" y="258" fill="#3C3489">Fp1</text>
<polyline fill="none" stroke="#534AB7" stroke-width="1.1" points="80,254 95,260 110,248 125,262 140,252 155,258 170,246 185,264 200,254 215,258 230,250 245,260 260,254 275,262 290,252 305,260 320,256 335,250 350,258 365,254 380,262 395,250 410,258 425,256 440,260 455,254 470,250 485,260 500,254 515,258 530,252 545,262 560,250 575,256 590,260 605,254 625,256"/>
<text class="ts" x="50" y="300" fill="#3C3489">C3</text>
<polyline fill="none" stroke="#534AB7" stroke-width="1.1" points="80,296 95,300 110,290 125,304 140,294 155,302 170,288 185,306 200,296 215,302 230,290 245,304 260,296 275,304 290,290 305,302 320,298 335,290 350,300 365,294 380,304 395,290 410,300 425,298 440,302 455,296 470,290 485,302 500,294 515,302 530,290 545,304 560,290 575,296 590,302 605,294 625,298"/>
<text class="ts" x="50" y="338" fill="#3C3489">O1</text>
<polyline fill="none" stroke="#534AB7" stroke-width="1.1" points="80,332 95,326 110,344 125,320 140,346 155,322 170,348 185,318 200,344 215,326 230,346 245,322 260,348 275,324 290,344 305,326 320,346 335,322 350,348 365,324 380,344 395,326 410,346 425,322 440,348 455,326 470,344 485,322 500,346 515,324 530,348 545,326 560,344 575,322 590,346 605,326 625,344"/>
<text class="ts" x="50" y="380" fill="#3C3489">P3</text>
<polyline fill="none" stroke="#534AB7" stroke-width="1.1" points="80,376 95,380 110,370 125,386 140,372 155,384 170,370 185,388 200,374 215,384 230,372 245,386 260,374 275,386 290,372 305,384 320,378 335,372 350,384 365,374 380,388 395,372 410,386 425,378 440,384 455,374 470,372 485,386 500,374 515,384 530,372 545,388 560,372 575,378 590,386 605,374 625,380"/>

<text class="th" x="40" y="438" fill="#1c1c1c">PPG — flujo sanguíneo (smartwatch)</text>
<g class="c-teal"><rect x="40" y="450" width="600" height="80" rx="8"/></g>
<path fill="none" stroke="#0F6E56" stroke-width="1.6" d="M55 510 Q75 510 90 475 Q100 466 110 478 Q120 488 135 506 Q150 510 165 510 Q185 510 200 475 Q210 466 220 478 Q230 488 245 506 Q260 510 275 510 Q295 510 310 475 Q320 466 330 478 Q340 488 355 506 Q370 510 385 510 Q405 510 420 475 Q430 466 440 478 Q450 488 465 506 Q480 510 495 510 Q515 510 530 475 Q540 466 550 478 Q560 488 575 506 Q590 510 605 510 Q620 510 625 510"/>
</svg>
