<?xml version="1.0" encoding="UTF-8"?>
<svg xmlns="http://www.w3.org/2000/svg" width="100%" viewBox="0 0 680 440" role="img">
<style>
text { font-family: -apple-system, BlinkMacSystemFont, "Segoe UI", Helvetica, Arial, sans-serif; }
.t { font-size: 14px; fill: #1c1c1c; }
.ts { font-size: 12px; fill: #5f5e5a; }
.th { font-size: 14px; font-weight: 500; fill: #1c1c1c; }
.c-coral > rect { fill: #FAECE7; stroke: #993C1D; stroke-width: 0.5; }
.c-purple > rect { fill: #EEEDFE; stroke: #534AB7; stroke-width: 0.5; }
.c-teal > rect { fill: #E1F5EE; stroke: #1D9E75; stroke-width: 0.5; }
.c-blue > rect { fill: #E6F1FB; stroke: #185FA5; stroke-width: 0.5; }
</style>
<title>Cuatro tipos de señal: ECG, EEG, audio e imagen</title><desc>Comparación visual entre tres señales unidimensionales en el tiempo (ECG, EEG, audio) y una señal bidimensional en el espacio (imagen).</desc>
<defs><marker id="arrow" viewBox="0 0 10 10" refX="8" refY="5" markerWidth="6" markerHeight="6" orient="auto-start-reverse"><path d="M2 1L8 5L2 9" fill="none" stroke="context-stroke" stroke-width="1.5" stroke-linecap="round" stroke-linejoin="round"/></marker></defs>

<g class="c-coral"><rect x="40" y="40" width="290" height="170" rx="8"/></g>
<text class="th" x="55" y="62" fill="#712B13">ECG</text>
<text class="ts" x="55" y="78" fill="#993C1D">señal 1d en el tiempo</text>
<line x1="55" y1="160" x2="315" y2="160" stroke="#F0997B" stroke-width="0.5"/>
<polyline fill="none" stroke="#993C1D" stroke-width="1.5" points="55,160 75,160 82,152 89,160 100,160 108,162 113,120 118,185 123,160 145,160 158,148 172,160 195,160 215,160 222,152 229,160 240,160 248,162 253,120 258,185 263,160 285,160 298,148 312,160 315,160"/>

<g class="c-purple"><rect x="350" y="40" width="290" height="170" rx="8"/></g>
<text class="th" x="365" y="62" fill="#3C3489">EEG</text>
<text class="ts" x="365" y="78" fill="#534AB7">múltiples canales 1d</text>
<polyline fill="none" stroke="#534AB7" stroke-width="1.2" points="365,108 375,112 385,104 395,116 405,106 415,114 425,102 435,118 445,108 455,110 465,104 475,116 485,106 495,112 505,108 515,116 525,104 535,110 545,108 555,114 565,106 575,112 585,108 595,110 605,106 615,114 625,108"/>
<polyline fill="none" stroke="#534AB7" stroke-width="1.2" points="365,148 375,156 385,142 395,158 405,146 415,154 425,140 435,160 445,148 455,150 465,144 475,156 485,142 495,154 505,148 515,158 525,144 535,150 545,148 555,154 565,142 575,156 585,148 595,150 605,142 615,154 625,148"/>
<polyline fill="none" stroke="#534AB7" stroke-width="1.2" points="365,188 375,184 385,194 395,182 405,192 415,186 425,196 435,180 445,190 455,186 465,194 475,184 485,196 495,188 505,184 515,192 525,186 535,194 545,188 555,182 565,196 575,184 585,188 595,194 605,184 615,192 625,188"/>

<g class="c-teal"><rect x="40" y="240" width="290" height="170" rx="8"/></g>
<text class="th" x="55" y="262" fill="#085041">audio</text>
<text class="ts" x="55" y="278" fill="#0F6E56">presión del aire 1d</text>
<polyline fill="none" stroke="#0F6E56" stroke-width="1" points="55,335 60,325 65,345 70,320 75,350 80,318 85,348 90,322 95,346 100,320 105,348 110,324 115,345 120,322 125,348 130,326 135,344 140,330 145,342 150,328 155,346 160,322 165,348 170,318 175,350 180,320 185,346 190,324 195,344 200,328 205,346 210,322 215,348 220,320 225,344 230,326 235,342 240,328 245,346 250,322 255,348 260,318 265,350 270,320 275,346 280,324 285,344 290,328 295,346 300,322 305,348 310,326"/>

<g class="c-blue"><rect x="350" y="240" width="290" height="170" rx="8"/></g>
<text class="th" x="365" y="262" fill="#0C447C">imagen</text>
<text class="ts" x="365" y="278" fill="#185FA5">grilla 2d en el espacio</text>
<g transform="translate(380,290)">
<rect x="0" y="0" width="24" height="24" fill="#042C53"/><rect x="26" y="0" width="24" height="24" fill="#0C447C"/><rect x="52" y="0" width="24" height="24" fill="#185FA5"/><rect x="78" y="0" width="24" height="24" fill="#378ADD"/><rect x="104" y="0" width="24" height="24" fill="#85B7EB"/><rect x="130" y="0" width="24" height="24" fill="#B5D4F4"/><rect x="156" y="0" width="24" height="24" fill="#E6F1FB"/><rect x="182" y="0" width="24" height="24" fill="#B5D4F4"/><rect x="208" y="0" width="24" height="24" fill="#85B7EB"/><rect x="234" y="0" width="24" height="24" fill="#378ADD"/>
<rect x="0" y="26" width="24" height="24" fill="#0C447C"/><rect x="26" y="26" width="24" height="24" fill="#185FA5"/><rect x="52" y="26" width="24" height="24" fill="#378ADD"/><rect x="78" y="26" width="24" height="24" fill="#85B7EB"/><rect x="104" y="26" width="24" height="24" fill="#B5D4F4"/><rect x="130" y="26" width="24" height="24" fill="#E6F1FB"/><rect x="156" y="26" width="24" height="24" fill="#B5D4F4"/><rect x="182" y="26" width="24" height="24" fill="#85B7EB"/><rect x="208" y="26" width="24" height="24" fill="#378ADD"/><rect x="234" y="26" width="24" height="24" fill="#185FA5"/>
<rect x="0" y="52" width="24" height="24" fill="#185FA5"/><rect x="26" y="52" width="24" height="24" fill="#378ADD"/><rect x="52" y="52" width="24" height="24" fill="#85B7EB"/><rect x="78" y="52" width="24" height="24" fill="#B5D4F4"/><rect x="104" y="52" width="24" height="24" fill="#E6F1FB"/><rect x="130" y="52" width="24" height="24" fill="#B5D4F4"/><rect x="156" y="52" width="24" height="24" fill="#85B7EB"/><rect x="182" y="52" width="24" height="24" fill="#378ADD"/><rect x="208" y="52" width="24" height="24" fill="#185FA5"/><rect x="234" y="52" width="24" height="24" fill="#0C447C"/>
<rect x="0" y="78" width="24" height="24" fill="#378ADD"/><rect x="26" y="78" width="24" height="24" fill="#85B7EB"/><rect x="52" y="78" width="24" height="24" fill="#B5D4F4"/><rect x="78" y="78" width="24" height="24" fill="#E6F1FB"/><rect x="104" y="78" width="24" height="24" fill="#B5D4F4"/><rect x="130" y="78" width="24" height="24" fill="#85B7EB"/><rect x="156" y="78" width="24" height="24" fill="#378ADD"/><rect x="182" y="78" width="24" height="24" fill="#185FA5"/><rect x="208" y="78" width="24" height="24" fill="#0C447C"/><rect x="234" y="78" width="24" height="24" fill="#042C53"/>
</g>
</svg>
