<?xml version="1.0" encoding="UTF-8"?>
<svg xmlns="http://www.w3.org/2000/svg" width="100%" viewBox="0 0 680 360" role="img">
<style>
text { font-family: -apple-system, BlinkMacSystemFont, "Segoe UI", Helvetica, Arial, sans-serif; }
.t { font-size: 14px; fill: #1c1c1c; }
.ts { font-size: 12px; fill: #5f5e5a; }
.th { font-size: 14px; font-weight: 500; fill: #1c1c1c; }
.mono { font-family: ui-monospace, SFMono-Regular, Menlo, Consolas, monospace; }
.c-teal > rect { fill: #E1F5EE; stroke: #1D9E75; stroke-width: 0.5; }
.c-purple > rect { fill: #EEEDFE; stroke: #534AB7; stroke-width: 0.5; }
.c-coral > rect { fill: #FAECE7; stroke: #993C1D; stroke-width: 0.5; }
</style>
<title>Tres representaciones de la aspirina: grafo molecular, SMILES y geometría 3D</title><desc>La misma molécula de ácido acetilsalicílico mostrada como grafo de átomos y enlaces, como cadena de caracteres SMILES y como conjunto de átomos en coordenadas tridimensionales.</desc>
<defs><marker id="arrow" viewBox="0 0 10 10" refX="8" refY="5" markerWidth="6" markerHeight="6" orient="auto-start-reverse"><path d="M2 1L8 5L2 9" fill="none" stroke="context-stroke" stroke-width="1.5" stroke-linecap="round" stroke-linejoin="round"/></marker></defs>

<text class="th" x="40" y="32" fill="#1c1c1c">grafo molecular</text>
<text class="ts" x="40" y="50" fill="#5f5e5a">átomos = nodos, enlaces = aristas</text>
<g class="c-teal"><rect x="40" y="60" width="190" height="280" rx="8"/></g>

<g stroke="#085041" stroke-width="1.4" fill="none">
<line x1="135" y1="190" x2="160" y2="175"/>
<line x1="160" y1="175" x2="160" y2="145"/>
<line x1="160" y1="145" x2="135" y2="130"/>
<line x1="135" y1="130" x2="110" y2="145"/>
<line x1="110" y1="145" x2="110" y2="175"/>
<line x1="110" y1="175" x2="135" y2="190"/>
<line x1="135" y1="184" x2="158" y2="170"/>
<line x1="160" y1="151" x2="135" y2="136"/>
<line x1="110" y1="151" x2="110" y2="170"/>
<line x1="160" y1="175" x2="185" y2="190"/>
<line x1="185" y1="190" x2="185" y2="220"/>
<line x1="180" y1="220" x2="200" y2="232"/>
<line x1="190" y1="220" x2="200" y2="218"/>
<line x1="135" y1="130" x2="135" y2="100"/>
<line x1="135" y1="100" x2="160" y2="85"/>
<line x1="160" y1="85" x2="185" y2="100"/>
<line x1="185" y1="100" x2="185" y2="70"/>
<line x1="160" y1="85" x2="160" y2="60"/>
</g>
<text class="ts" x="135" y="194" text-anchor="middle" fill="#085041">C</text>
<text class="ts" x="160" y="179" text-anchor="middle" fill="#085041">C</text>
<text class="ts" x="160" y="149" text-anchor="middle" fill="#085041">C</text>
<text class="ts" x="135" y="134" text-anchor="middle" fill="#085041">C</text>
<text class="ts" x="110" y="149" text-anchor="middle" fill="#085041">C</text>
<text class="ts" x="110" y="179" text-anchor="middle" fill="#085041">C</text>
<text class="ts" x="135" y="104" text-anchor="middle" fill="#D85A30">O</text>
<text class="ts" x="160" y="89" text-anchor="middle" fill="#085041">C</text>
<text class="ts" x="185" y="104" text-anchor="middle" fill="#085041">C</text>
<text class="ts" x="185" y="64" text-anchor="middle" fill="#D85A30">O</text>
<text class="ts" x="160" y="55" text-anchor="middle" fill="#D85A30">O</text>
<text class="ts" x="185" y="194" text-anchor="middle" fill="#085041">C</text>
<text class="ts" x="185" y="224" text-anchor="middle" fill="#D85A30">O</text>
<text class="ts" x="200" y="237" text-anchor="middle" fill="#D85A30">O</text>
<text class="ts" x="205" y="222" text-anchor="middle" fill="#085041">H</text>
<text class="ts" x="135" y="290" text-anchor="middle" fill="#0F6E56">ácido acetilsalicílico</text>
<text class="ts" x="135" y="308" text-anchor="middle" fill="#1D9E75">C₉H₈O₄</text>

<text class="th" x="260" y="32" fill="#1c1c1c">SMILES</text>
<text class="ts" x="260" y="50" fill="#5f5e5a">string de caracteres</text>
<g class="c-purple"><rect x="260" y="60" width="190" height="280" rx="8"/></g>
<text class="th mono" x="355" y="180" text-anchor="middle" fill="#3C3489">CC(=O)O</text>
<text class="th mono" x="355" y="204" text-anchor="middle" fill="#3C3489">c1ccccc1</text>
<text class="th mono" x="355" y="228" text-anchor="middle" fill="#3C3489">C(=O)O</text>
<text class="ts" x="355" y="278" text-anchor="middle" fill="#534AB7">linealiza el grafo</text>
<text class="ts" x="355" y="294" text-anchor="middle" fill="#534AB7">como texto procesable</text>
<text class="ts" x="355" y="310" text-anchor="middle" fill="#534AB7">por un LLM</text>

<text class="th" x="480" y="32" fill="#1c1c1c">geometría 3D</text>
<text class="ts" x="480" y="50" fill="#5f5e5a">coordenadas x, y, z por átomo</text>
<g class="c-coral"><rect x="460" y="60" width="180" height="280" rx="8"/></g>
<g stroke="#993C1D" stroke-width="1.4" fill="none">
<line x1="530" y1="220" x2="558" y2="205"/>
<line x1="558" y1="205" x2="568" y2="178"/>
<line x1="568" y1="178" x2="548" y2="158"/>
<line x1="548" y1="158" x2="518" y2="170"/>
<line x1="518" y1="170" x2="510" y2="198"/>
<line x1="510" y1="198" x2="530" y2="220"/>
<line x1="548" y1="158" x2="540" y2="130"/>
<line x1="540" y1="130" x2="558" y2="112"/>
<line x1="558" y1="112" x2="586" y2="124"/>
<line x1="586" y1="124" x2="600" y2="105"/>
<line x1="558" y1="112" x2="552" y2="85"/>
<line x1="558" y1="205" x2="582" y2="222"/>
<line x1="582" y1="222" x2="608" y2="215"/>
<line x1="582" y1="222" x2="588" y2="248"/>
</g>
<circle cx="530" cy="220" r="6" fill="#993C1D"/>
<circle cx="558" cy="205" r="6" fill="#993C1D"/>
<circle cx="568" cy="178" r="6" fill="#993C1D"/>
<circle cx="548" cy="158" r="6" fill="#993C1D"/>
<circle cx="518" cy="170" r="6" fill="#993C1D"/>
<circle cx="510" cy="198" r="6" fill="#993C1D"/>
<circle cx="540" cy="130" r="6" fill="#D85A30"/>
<circle cx="558" cy="112" r="6" fill="#993C1D"/>
<circle cx="586" cy="124" r="6" fill="#993C1D"/>
<circle cx="600" cy="105" r="6" fill="#D85A30"/>
<circle cx="552" cy="85" r="6" fill="#D85A30"/>
<circle cx="582" cy="222" r="6" fill="#993C1D"/>
<circle cx="608" cy="215" r="6" fill="#D85A30"/>
<circle cx="588" cy="248" r="6" fill="#D85A30"/>
<text class="ts" x="551" y="310" text-anchor="middle" fill="#993C1D">conformación 3D</text>
</svg>
