<?xml version="1.0" encoding="UTF-8"?>
<svg xmlns="http://www.w3.org/2000/svg" width="100%" viewBox="0 0 680 580" role="img">
<style>
text { font-family: -apple-system, BlinkMacSystemFont, "Segoe UI", Helvetica, Arial, sans-serif; }
.t { font-size: 14px; fill: #1c1c1c; }
.ts { font-size: 12px; fill: #5f5e5a; }
.th { font-size: 14px; font-weight: 500; fill: #1c1c1c; }
.c-gray > rect { fill: #F1EFE8; stroke: #888780; stroke-width: 0.5; }
.c-amber > rect { fill: #FAEEDA; stroke: #BA7517; stroke-width: 0.5; }
.c-blue > rect { fill: #E6F1FB; stroke: #185FA5; stroke-width: 0.5; }
.c-teal > rect { fill: #E1F5EE; stroke: #1D9E75; stroke-width: 0.5; }
</style>
<title>Efecto de filtros clásicos sobre un ECG</title><desc>Cuatro paneles apilados muestran el mismo ECG con cuatro niveles de procesamiento.</desc>
<defs><marker id="arrow" viewBox="0 0 10 10" refX="8" refY="5" markerWidth="6" markerHeight="6" orient="auto-start-reverse"><path d="M2 1L8 5L2 9" fill="none" stroke="context-stroke" stroke-width="1.5" stroke-linecap="round" stroke-linejoin="round"/></marker></defs>

<text class="th" x="40" y="30" fill="#1c1c1c">crudo</text>
<text class="ts" x="90" y="30" fill="#5f5e5a">deriva + 50 Hz + ruido</text>
<g class="c-gray"><rect x="40" y="40" width="600" height="110" rx="6"/></g>
<polyline fill="none" stroke="#2C2C2A" stroke-width="1" points="60,110.5 62,108.6 64,112.1 66,106.7 68,110.1 70,107.5 72,105.0 74,107.7 76,102.0 78,106.8 80,106.5 82,104.6 84,108.9 86,100.7 88,107.9 90,105.2 92,101.6 94,105.8 96,99.9 98,105.6 100,102.1 102,105.7 104,87.1 106,82.3 108,111.9 110,104.0 112,100.2 114,103.9 116,99.0 118,103.0 120,100.3 122,98.3 124,101.8 126,95.0 128,99.0 130,95.9 132,93.0 134,100.6 136,95.9 138,101.7 140,100.9 142,99.7 144,103.8 146,97.6 148,104.5 150,101.7 152,99.9 154,104.5 156,98.5 158,105.4 160,101.5 162,102.3 164,107.1 166,99.7 168,107.2 170,104.4 172,104.0 174,107.9 176,101.2 178,107.3 180,104.1 182,103.1 184,106.7 186,100.8 188,107.5 190,107.3 192,105.1 194,110.7 196,105.9 198,111.2 200,111.3 202,107.7 204,113.7 206,106.4 208,112.7 210,113.2 212,114.3 214,98.0 216,94.0 218,122.4 220,115.8 222,113.4 224,119.3 226,110.8 228,118.3 230,115.9 232,113.0 234,116.0 236,110.4 238,113.6 240,110.9 242,108.6 244,115.9 246,110.9 248,119.4 250,117.9 252,116.5 254,120.6 256,113.8 258,121.8 260,119.7 262,117.6 264,123.0 266,115.7 268,120.8 270,119.7 272,118.4 274,122.5 276,116.0 278,120.7 280,117.4 282,116.0 284,121.8 286,114.7 288,119.5 290,118.6 292,112.8 294,117.4 296,110.2 298,116.5 300,116.5 302,114.8 304,121.0 306,112.5 308,119.3 310,116.9 312,114.1 314,119.3 316,111.8 318,117.7 320,115.9 322,116.2 324,100.0 326,92.6 328,122.5 330,111.8 332,109.2 334,115.6 336,108.2 338,112.8 340,109.9 342,107.5 344,109.0 346,100.0 348,105.1 350,102.0 352,101.4 354,107.7 356,101.5 358,108.0 360,104.6 362,104.5 364,110.1 366,100.4 368,106.7 370,105.4 372,101.9 374,108.5 376,100.1 378,103.8 380,101.9 382,100.1 384,106.5 386,99.3 388,105.1 390,101.1 392,99.6 394,104.1 396,98.6 398,104.0 400,99.4 402,95.7 404,100.5 406,93.9 408,100.2 410,99.4 412,99.5 414,104.3 416,98.2 418,104.6 420,102.6 422,99.9 424,105.5 426,97.7 428,102.4 430,102.6 432,102.4 434,86.5 436,80.5 438,111.8 440,104.7 442,102.0 444,107.7 446,101.3 448,105.6 450,102.7 452,100.4 454,106.0 456,97.6 458,101.5 460,101.3 462,98.5 464,104.9 466,100.6 468,107.7 470,107.6 472,107.1 474,111.2 476,106.4 478,110.7 480,108.6 482,108.7 484,114.4 486,106.5 488,113.0 490,113.0 492,111.5 494,117.2 496,108.6 498,114.7 500,115.0 502,111.2 504,116.5 506,111.1 508,117.5 510,114.6 512,113.1 514,118.2 516,108.9 518,116.5 520,116.1 522,113.7 524,121.0 526,113.3 528,119.0 530,119.0 532,117.0 534,122.4 536,116.0 538,120.5 540,120.0 542,120.7 544,105.7 546,97.2 548,128.2 550,120.1 552,116.7 554,121.1 556,115.8 558,119.5 560,118.3 562,115.3 564,119.4 566,112.5 568,115.1 570,113.1 572,111.9 574,116.1 576,112.7 578,118.2 580,115.9 582,114.4 584,120.3 586,112.8 588,117.8 590,114.8 592,114.4 594,118.1 596,112.0 598,117.0 600,113.1 602,111.5 604,116.3 606,108.7 608,113.2 610,112.2 612,109.2 614,114.5 616,107.4 618,111.6 620,109.3"/>

<text class="th" x="40" y="180" fill="#1c1c1c">post notch 50 Hz</text>
<text class="ts" x="160" y="180" fill="#5f5e5a">queda la deriva, se va el ruido de red</text>
<g class="c-amber"><rect x="40" y="190" width="600" height="110" rx="6"/></g>
<polyline fill="none" stroke="#854F0B" stroke-width="1" points="60,210.4 62,210.4 64,208.8 66,209.8 68,208.0 70,207.5 72,206.8 74,204.3 76,205.1 78,204.7 80,206.3 82,206.5 84,205.5 86,204.3 88,205.6 90,205.1 92,203.8 94,202.7 96,203.3 98,203.5 100,202.4 102,207.5 104,184.0 106,185.5 108,209.6 110,203.8 112,202.2 114,200.8 116,202.2 118,201.0 120,200.4 122,200.2 124,198.5 126,198.1 128,196.6 130,195.7 132,195.1 134,197.2 136,199.1 138,199.7 140,200.8 142,201.6 144,200.7 146,201.1 148,202.3 150,201.7 152,202.0 154,201.4 156,201.9 158,203.2 160,201.8 162,204.1 164,203.7 166,203.2 168,204.9 170,204.4 172,205.8 174,204.6 176,204.7 178,205.3 180,204.3 182,205.0 184,203.5 186,204.1 188,205.5 190,207.2 192,207.3 194,207.7 196,209.2 198,209.2 200,211.1 202,209.9 204,210.5 206,210.0 208,210.8 210,213.1 212,216.3 214,194.7 216,197.1 218,220.3 220,215.6 222,215.2 224,215.7 226,214.3 228,216.0 230,215.7 232,215.0 234,212.9 236,213.5 238,211.5 240,210.9 242,210.9 244,212.7 246,214.4 248,217.2 250,217.8 252,218.5 254,217.5 256,217.5 258,219.5 260,219.6 262,219.5 264,219.6 266,219.0 268,218.8 270,219.6 272,220.2 274,219.2 276,219.2 278,218.7 280,217.7 282,218.2 284,218.5 286,218.1 288,217.6 290,218.3 292,215.1 294,214.2 296,213.8 298,214.7 300,216.4 302,216.8 304,217.4 306,215.9 308,217.0 310,216.6 312,216.0 314,215.8 316,215.0 318,215.3 320,215.6 322,218.0 324,196.5 326,195.9 328,220.2 330,212.1 332,211.3 334,212.0 336,211.4 338,210.6 340,209.8 342,209.3 344,205.9 346,203.6 348,203.0 350,202.0 352,203.2 354,204.2 356,204.8 358,205.8 360,204.8 362,206.4 364,206.5 366,203.9 368,204.6 370,205.2 372,204.0 374,204.9 376,203.4 378,202.1 380,202.1 382,202.2 384,203.1 386,202.6 388,202.9 390,201.2 392,201.6 394,200.9 396,201.8 398,201.7 400,199.6 402,198.1 404,197.4 406,197.4 408,198.3 410,199.6 412,201.4 414,200.9 416,201.4 418,202.3 420,202.4 422,201.9 424,202.0 426,201.1 428,200.6 430,202.6 432,204.7 434,183.5 436,184.1 438,209.7 440,204.6 442,203.9 444,204.2 446,204.4 448,203.6 450,202.9 452,202.7 454,202.7 456,201.0 458,199.6 460,201.1 462,200.6 464,201.8 466,204.1 468,205.8 470,207.6 472,209.0 474,208.1 476,209.6 478,208.9 480,208.9 482,210.7 484,211.0 486,210.1 488,211.1 490,212.8 492,213.3 494,213.6 496,212.2 498,212.8 500,214.8 502,213.5 504,213.5 506,214.5 508,215.4 510,214.6 512,214.9 514,214.5 516,212.5 518,214.5 520,216.1 522,216.0 524,217.6 526,216.8 528,217.1 530,218.8 532,218.9 534,218.9 536,219.2 538,218.5 540,219.9 542,222.7 544,202.2 546,200.7 548,226.0 550,220.0 552,218.8 554,218.0 556,219.1 558,217.7 560,218.3 562,217.4 564,216.1 566,215.6 568,213.0 570,212.9 572,213.7 574,213.0 576,215.9 578,216.1 580,216.0 582,216.5 584,216.9 586,216.2 588,215.8 590,214.9 592,216.2 594,214.8 596,215.2 598,214.8 600,213.3 602,213.5 604,213.0 606,212.2 608,211.4 610,212.1 612,211.3 614,211.2 616,210.7 618,209.7 620,209.3"/>

<text class="th" x="40" y="330" fill="#1c1c1c">post pasa-alto</text>
<text class="ts" x="160" y="330" fill="#5f5e5a">queda el ruido de red, se va la deriva</text>
<g class="c-blue"><rect x="40" y="340" width="600" height="110" rx="6"/></g>
<polyline fill="none" stroke="#0C447C" stroke-width="1" points="60,390.4 62,388.8 64,393.0 66,387.6 68,391.7 70,389.5 72,387.1 74,390.5 76,384.9 78,390.3 80,390.2 82,388.7 84,393.5 86,385.9 88,393.0 90,390.7 92,387.6 94,392.3 96,386.5 98,392.3 100,389.4 102,392.7 104,374.8 106,369.9 108,399.6 110,391.9 112,388.4 114,392.6 116,387.4 118,391.7 120,389.2 122,387.0 124,390.8 126,383.7 128,387.7 130,384.7 132,382.1 134,389.5 136,384.7 138,390.6 140,389.6 142,388.3 144,392.6 146,386.2 148,392.7 150,389.8 152,387.9 154,392.4 156,386.1 158,392.6 160,388.8 162,388.9 164,393.5 166,386.1 168,392.9 170,390.0 172,389.0 174,392.9 176,386.0 178,391.6 180,388.2 182,386.5 184,390.0 186,383.6 188,390.0 190,389.2 192,386.9 194,392.2 196,386.7 198,391.7 200,391.1 202,387.5 204,393.0 206,385.5 208,391.3 210,391.1 212,391.9 214,375.3 216,370.6 218,398.8 220,391.7 222,388.9 224,394.4 226,386.0 228,392.8 230,390.1 232,387.0 234,390.0 236,383.7 238,386.8 240,383.9 242,381.6 244,388.5 246,383.4 248,391.4 250,389.7 252,388.1 254,392.4 256,385.6 258,392.9 260,390.8 262,388.6 264,394.0 266,386.7 268,391.8 270,390.6 272,389.1 274,393.5 276,387.0 278,391.9 280,388.9 282,387.5 284,393.3 286,386.3 288,391.4 290,390.2 292,385.1 294,389.8 296,382.9 298,389.4 300,389.4 302,387.9 304,394.2 306,386.3 308,393.1 310,391.0 312,388.6 314,394.1 316,387.1 318,393.1 320,391.7 322,392.4 324,376.6 326,369.8 328,399.9 330,390.0 332,387.7 334,394.2 336,387.2 338,392.3 340,389.8 342,387.6 344,390.1 346,381.5 348,386.7 350,384.0 352,383.5 354,390.3 356,384.6 358,391.4 360,388.7 362,388.6 364,394.4 366,385.6 368,392.0 370,390.8 372,387.8 374,394.5 376,386.6 378,390.9 380,389.1 382,387.5 384,393.9 386,387.0 388,392.9 390,389.3 392,387.9 394,392.7 396,387.0 398,392.5 400,388.4 402,384.9 404,389.6 406,383.1 408,389.4 410,388.6 412,388.3 414,393.2 416,387.0 418,393.2 420,391.1 422,388.5 424,393.9 426,386.2 428,391.0 430,390.7 432,390.6 434,374.5 436,368.3 438,399.0 440,391.6 442,388.6 444,394.0 446,387.3 448,391.6 450,388.5 452,385.9 454,390.9 456,382.3 458,385.9 460,385.0 462,382.1 464,388.3 466,383.6 468,390.2 470,389.6 472,388.6 474,392.6 476,387.1 478,391.3 480,388.9 482,388.2 484,393.6 486,385.6 488,391.5 490,390.8 492,388.8 494,394.2 496,385.7 498,391.3 500,390.8 502,387.2 504,392.2 506,386.2 508,392.2 510,389.0 512,386.9 514,391.6 516,382.7 518,389.8 520,389.1 522,386.6 524,393.4 526,385.8 528,391.3 530,390.7 532,388.5 534,393.8 536,387.3 538,391.9 540,391.1 542,391.8 544,376.6 546,368.4 548,399.1 550,391.0 552,387.7 554,392.3 556,386.8 558,390.9 560,389.5 562,386.7 564,390.8 566,383.8 568,386.8 570,384.8 572,383.7 574,388.6 576,385.0 578,390.9 580,389.0 582,387.6 584,393.7 586,386.6 588,391.9 590,389.3 592,388.9 594,393.2 596,387.3 598,392.6 600,389.3 602,387.9 604,393.2 606,386.0 608,391.1 610,390.1 612,387.7 614,393.3 616,386.6 618,391.3 620,389.3"/>

<text class="th" x="40" y="480" fill="#1c1c1c">notch + pasa-alto</text>
<text class="ts" x="180" y="480" fill="#5f5e5a">señal limpia, lista para procesar</text>
<g class="c-teal"><rect x="40" y="490" width="600" height="80" rx="6"/></g>
<polyline fill="none" stroke="#085041" stroke-width="1.2" points="60,530.2 62,530.5 64,529.8 66,530.5 68,529.7 70,529.3 72,528.7 74,527.1 76,527.8 78,528.2 80,529.7 82,530.3 84,530.1 86,529.5 88,530.5 90,530.4 92,529.8 94,529.4 96,529.9 98,530.1 100,529.9 102,534.3 104,511.8 106,513.0 108,537.2 110,531.5 112,530.3 114,529.5 116,530.4 118,529.7 120,529.3 122,529.0 124,527.5 126,526.6 128,525.2 130,524.4 132,524.3 134,526.1 136,527.8 138,528.7 140,529.6 142,530.1 144,529.5 146,529.7 148,530.4 150,529.9 152,530.0 154,529.5 156,529.7 158,530.3 160,529.3 162,530.5 164,530.1 166,529.6 168,530.5 170,530.0 172,530.6 174,529.8 176,529.6 178,529.6 180,528.6 182,528.3 184,526.9 186,527.0 188,528.0 190,529.2 192,529.3 194,529.3 196,530.0 198,529.8 200,530.6 202,529.7 204,529.8 206,529.3 208,529.6 210,530.8 212,533.8 214,512.1 216,513.4 218,536.7 220,531.4 222,530.5 224,530.6 226,529.6 228,530.4 230,529.9 232,528.9 234,527.0 236,526.6 238,524.6 240,523.9 242,524.0 244,525.5 246,527.1 248,529.1 250,529.6 252,530.0 254,529.4 256,529.3 258,530.5 260,530.5 262,530.4 264,530.4 266,530.0 268,529.9 270,530.3 272,530.7 274,530.1 276,530.2 278,529.9 280,529.4 282,529.7 284,530.0 286,529.8 288,529.5 290,529.8 292,527.5 294,526.8 296,526.6 298,527.7 300,529.3 302,529.9 304,530.5 306,529.8 308,530.6 310,530.6 312,530.4 314,530.5 316,530.2 318,530.6 320,531.2 322,534.2 324,512.9 326,512.9 328,537.3 330,530.4 332,529.8 334,530.5 336,530.3 338,530.0 340,529.7 342,529.3 344,527.1 346,525.3 348,524.6 350,524.0 352,525.2 354,526.5 356,527.8 358,529.1 360,529.0 362,530.3 364,530.6 366,529.4 368,530.0 370,530.5 372,529.9 374,530.7 376,530.0 378,529.3 380,529.5 382,529.7 384,530.3 386,530.2 388,530.5 390,529.6 392,530.0 394,529.6 396,530.2 398,530.1 400,528.7 402,527.4 404,526.7 406,526.7 408,527.6 410,528.8 412,530.1 414,529.9 416,530.2 418,530.7 420,530.7 422,530.3 424,530.3 426,529.7 428,529.4 430,530.6 432,533.1 434,511.7 436,512.1 438,536.9 440,531.3 442,530.4 444,530.4 446,530.4 448,529.7 450,528.9 452,528.3 454,527.6 456,525.8 458,524.2 460,524.6 462,524.3 464,525.4 466,527.2 468,528.4 470,529.5 472,530.3 474,529.6 476,530.2 478,529.6 480,529.3 482,530.1 484,530.1 486,529.4 488,529.7 490,530.5 492,530.5 494,530.5 496,529.4 498,529.6 500,530.5 502,529.5 504,529.3 506,529.7 508,530.0 510,529.1 512,528.6 514,527.8 516,526.5 518,527.9 520,529.1 522,529.1 524,530.0 526,529.5 528,529.5 530,530.4 532,530.3 534,530.3 536,530.4 538,529.9 540,530.9 542,533.8 544,512.9 546,512.2 548,536.9 550,531.0 552,529.9 554,529.4 556,530.1 558,529.3 560,529.5 562,528.7 564,527.5 566,526.7 568,524.7 570,524.4 572,525.3 574,525.6 576,528.0 578,528.8 580,529.2 582,529.8 584,530.2 586,530.0 588,529.9 590,529.6 592,530.6 594,529.9 596,530.4 598,530.3 600,529.6 602,530.0 604,529.9 606,529.6 608,529.4 610,530.1 612,529.8 614,530.0 616,529.9 618,529.5 620,529.2"/>
</svg>
