<svg xmlns="http://www.w3.org/2000/svg" width="960" height="960" viewBox="0 0 960 960" font-family="-apple-system, BlinkMacSystemFont, 'Segoe UI', Roboto, Helvetica, Arial, sans-serif">
  <defs>
    <marker id="arrow" viewBox="0 0 10 10" refX="8" refY="5" markerWidth="7" markerHeight="7" orient="auto-start-reverse">
      <path d="M0 0 L10 5 L0 10 z" fill="#94a3b8"/>
    </marker>
    <filter id="shadow" x="-5%" y="-5%" width="110%" height="130%">
      <feDropShadow dx="0" dy="1" stdDeviation="2" flood-color="#0f172a" flood-opacity="0.10"/>
    </filter>
  </defs>

  <!-- background -->
  <rect x="0" y="0" width="960" height="960" fill="#ffffff"/>

  <!-- title -->
  <text x="40" y="46" font-size="26" font-weight="700" fill="#0f172a">Talksmith workflow</text>
  <text x="40" y="70" font-size="14" fill="#64748b">Raw exploration &#8594; structured Markdown outline &#8594; polished deliverable &#8594; (optional) slides</text>

  <!-- phase rail bands -->
  <!-- EXPLORE: steps 1-2 -->
  <rect x="40" y="98" width="150" height="150" rx="10" fill="#2563eb" opacity="0.08"/>
  <text x="60" y="128" font-size="13" font-weight="700" fill="#2563eb" letter-spacing="1">EXPLORE</text>
  <text x="60" y="148" font-size="11" fill="#64748b">sources</text>
  <!-- CORPUS: step 3 -->
  <rect x="40" y="260" width="150" height="70" rx="10" fill="#7c3aed" opacity="0.08"/>
  <text x="60" y="290" font-size="13" font-weight="700" fill="#7c3aed" letter-spacing="1">CORPUS</text>
  <text x="60" y="310" font-size="11" fill="#64748b">knowledge</text>
  <!-- DRAFT: step 4 -->
  <rect x="40" y="342" width="150" height="70" rx="10" fill="#0891b2" opacity="0.08"/>
  <text x="60" y="372" font-size="13" font-weight="700" fill="#0891b2" letter-spacing="1">DRAFT</text>
  <text x="60" y="392" font-size="11" fill="#64748b">outline</text>
  <!-- REFINE: steps 5-8 -->
  <rect x="40" y="424" width="150" height="386" rx="10" fill="#059669" opacity="0.08"/>
  <text x="60" y="454" font-size="13" font-weight="700" fill="#059669" letter-spacing="1">REFINE</text>
  <text x="60" y="474" font-size="11" fill="#64748b">loop</text>

  <!-- ===== step cards ===== -->
  <!-- card geometry: x=220 w=700 h=58; badge cx=252 -->

  <!-- 1 Frame -->
  <rect x="220" y="98" width="700" height="58" rx="10" fill="#ffffff" stroke="#dbe4f0" stroke-width="1.5" filter="url(#shadow)"/>
  <circle cx="252" cy="127" r="15" fill="#2563eb"/>
  <text x="252" y="132" font-size="14" font-weight="700" fill="#ffffff" text-anchor="middle">1</text>
  <text x="284" y="122" font-size="16" font-weight="700" fill="#0f172a">Frame</text>
  <text x="284" y="142" font-size="13" fill="#64748b">Pick the topic and folder for this class.</text>

  <!-- 2 Collect -->
  <rect x="220" y="180" width="700" height="58" rx="10" fill="#ffffff" stroke="#dbe4f0" stroke-width="1.5" filter="url(#shadow)"/>
  <circle cx="252" cy="209" r="15" fill="#2563eb"/>
  <text x="252" y="214" font-size="14" font-weight="700" fill="#ffffff" text-anchor="middle">2</text>
  <text x="284" y="204" font-size="16" font-weight="700" fill="#0f172a">Collect</text>
  <text x="284" y="224" font-size="13" fill="#64748b">Drop in sources &#8212; papers, chat exports, URLs &#8212; or explore live.</text>

  <!-- 3 Corpus -->
  <rect x="220" y="262" width="700" height="58" rx="10" fill="#ffffff" stroke="#e5d8f7" stroke-width="1.5" filter="url(#shadow)"/>
  <circle cx="252" cy="291" r="15" fill="#7c3aed"/>
  <text x="252" y="296" font-size="14" font-weight="700" fill="#ffffff" text-anchor="middle">3</text>
  <text x="284" y="286" font-size="16" font-weight="700" fill="#0f172a">Corpus</text>
  <text x="284" y="306" font-size="13" fill="#64748b"><tspan font-weight="600" fill="#475569">Librarian</tspan> restructures every source into a uniform knowledge base.</text>

  <!-- 4 Draft -->
  <rect x="220" y="344" width="700" height="58" rx="10" fill="#ffffff" stroke="#c7e9f1" stroke-width="1.5" filter="url(#shadow)"/>
  <circle cx="252" cy="373" r="15" fill="#0891b2"/>
  <text x="252" y="378" font-size="14" font-weight="700" fill="#ffffff" text-anchor="middle">4</text>
  <text x="284" y="368" font-size="16" font-weight="700" fill="#0f172a">Draft</text>
  <text x="284" y="388" font-size="13" fill="#64748b"><tspan font-weight="600" fill="#475569">Editor</tspan> writes; <tspan font-weight="600" fill="#475569">Composer</tspan> critiques &#8212; interview, agent-draft, or your outline.</text>

  <!-- 5 Review -->
  <rect x="220" y="426" width="700" height="58" rx="10" fill="#ffffff" stroke="#cdeee0" stroke-width="1.5" filter="url(#shadow)"/>
  <circle cx="252" cy="455" r="15" fill="#059669"/>
  <text x="252" y="460" font-size="14" font-weight="700" fill="#ffffff" text-anchor="middle">5</text>
  <text x="284" y="450" font-size="16" font-weight="700" fill="#0f172a">Review</text>
  <text x="284" y="470" font-size="13" fill="#64748b">Edit <tspan font-family="monospace" font-size="12" fill="#475569">draft.md</tspan>, drop feedback bullets &#8212; applied each round. Loops.</text>

  <!-- 5.5 Preview (optional) -->
  <rect x="220" y="508" width="700" height="58" rx="10" fill="#ffffff" stroke="#cdeee0" stroke-width="1.5" stroke-dasharray="5 4" filter="url(#shadow)"/>
  <circle cx="252" cy="537" r="15" fill="#ffffff" stroke="#059669" stroke-width="2"/>
  <text x="252" y="542" font-size="12" font-weight="700" fill="#059669" text-anchor="middle">5.5</text>
  <text x="284" y="532" font-size="16" font-weight="700" fill="#0f172a">Preview <tspan font-size="11" font-weight="600" fill="#94a3b8">optional</tspan></text>
  <text x="284" y="552" font-size="13" fill="#64748b">A live styled HTML deck renders in the background as the talk takes shape.</text>

  <!-- 6 Polish -->
  <rect x="220" y="590" width="700" height="58" rx="10" fill="#ffffff" stroke="#cdeee0" stroke-width="1.5" filter="url(#shadow)"/>
  <circle cx="252" cy="619" r="15" fill="#059669"/>
  <text x="252" y="624" font-size="14" font-weight="700" fill="#ffffff" text-anchor="middle">6</text>
  <text x="284" y="614" font-size="16" font-weight="700" fill="#0f172a">Polish</text>
  <text x="284" y="634" font-size="13" fill="#64748b">Copy <tspan font-family="monospace" font-size="12" fill="#475569">draft.md</tspan> &#8594; <tspan font-family="monospace" font-size="12" fill="#475569">final.md</tspan>; <tspan font-weight="600" fill="#475569">Illustrator</tspan> turns ASCII into SVG; clean up.</text>

  <!-- 7 Render (optional) -->
  <rect x="220" y="672" width="700" height="58" rx="10" fill="#ffffff" stroke="#cdeee0" stroke-width="1.5" stroke-dasharray="5 4" filter="url(#shadow)"/>
  <circle cx="252" cy="701" r="15" fill="#ffffff" stroke="#059669" stroke-width="2"/>
  <text x="252" y="706" font-size="14" font-weight="700" fill="#059669" text-anchor="middle">7</text>
  <text x="284" y="696" font-size="16" font-weight="700" fill="#0f172a">Render <tspan font-size="11" font-weight="600" fill="#94a3b8">optional</tspan></text>
  <text x="284" y="716" font-size="13" fill="#64748b">Render the deck from <tspan font-family="monospace" font-size="12" fill="#475569">final.md</tspan> &#8212; PowerPoint or a shareable HTML deck.</text>

  <!-- 8 Learnings -->
  <rect x="220" y="754" width="700" height="58" rx="10" fill="#ffffff" stroke="#cdeee0" stroke-width="1.5" filter="url(#shadow)"/>
  <circle cx="252" cy="783" r="15" fill="#059669"/>
  <text x="252" y="788" font-size="14" font-weight="700" fill="#ffffff" text-anchor="middle">8</text>
  <text x="284" y="778" font-size="16" font-weight="700" fill="#0f172a">Learnings</text>
  <text x="284" y="798" font-size="13" fill="#64748b">Promote recurring feedback into durable rules the whole team inherits.</text>

  <!-- connectors -->
  <g stroke="#94a3b8" stroke-width="2" marker-end="url(#arrow)">
    <line x1="570" y1="156" x2="570" y2="178"/>
    <line x1="570" y1="238" x2="570" y2="260"/>
    <line x1="570" y1="320" x2="570" y2="342"/>
    <line x1="570" y1="402" x2="570" y2="424"/>
    <line x1="570" y1="484" x2="570" y2="506"/>
    <line x1="570" y1="566" x2="570" y2="588"/>
    <line x1="570" y1="648" x2="570" y2="670"/>
    <line x1="570" y1="730" x2="570" y2="752"/>
  </g>

  <!-- review loop-back arc (5 loops on itself) -->
  <path d="M 220 455 C 150 455 150 455 150 455" fill="none"/>
  <path d="M 205 470 C 175 470 175 440 205 440" fill="none" stroke="#059669" stroke-width="1.5" marker-end="url(#arrow)"/>
  <text x="196" y="490" font-size="10" fill="#059669" text-anchor="end">loop</text>
</svg>
